<?xml version="1.0" encoding="UTF-8"?>
<svg xmlns="http://www.w3.org/2000/svg" xmlns:xlink="http://www.w3.org/1999/xlink" width="55px" height="37px" viewBox="0 0 55 37" version="1.1">
<g id="surface1">
<path style=" stroke:none;fill-rule:nonzero;fill:rgb(100%,100%,100%);fill-opacity:1;" d="M 23.953125 23.707031 L 23.953125 13.292969 L 33.019531 18.5 Z M 44.121094 10.019531 C 43.722656 8.503906 42.546875 7.308594 41.054688 6.902344 C 38.347656 6.167969 27.5 6.167969 27.5 6.167969 C 27.5 6.167969 16.652344 6.167969 13.945312 6.902344 C 12.453125 7.308594 11.277344 8.503906 10.878906 10.019531 C 10.152344 12.765625 10.152344 18.5 10.152344 18.5 C 10.152344 18.5 10.152344 24.234375 10.878906 26.980469 C 11.277344 28.496094 12.453125 29.691406 13.945312 30.097656 C 16.652344 30.832031 27.5 30.832031 27.5 30.832031 C 27.5 30.832031 38.347656 30.832031 41.054688 30.097656 C 42.546875 29.691406 43.722656 28.496094 44.121094 26.980469 C 44.847656 24.234375 44.847656 18.5 44.847656 18.5 C 44.847656 18.5 44.847656 12.765625 44.121094 10.019531 "/>
</g>
</svg>
