<?xml version="1.0" standalone="no"?>
<!DOCTYPE svg PUBLIC "-//W3C//DTD SVG 20010904//EN"
 "http://www.w3.org/TR/2001/REC-SVG-20010904/DTD/svg10.dtd">
<svg version="1.0" xmlns="http://www.w3.org/2000/svg"
 width="500.000000pt" height="500.000000pt" viewBox="0 0 500.000000 500.000000"
 preserveAspectRatio="xMidYMid meet">
<metadata>
Created by potrace 1.14, written by Peter Selinger 2001-2017
</metadata>
<g transform="translate(0.000000,500.000000) scale(0.100000,-0.100000)"
fill="#000000" stroke="none">
<path d="M277 4981 c-130 -42 -227 -145 -262 -277 -13 -51 -15 -322 -15 -2201
0 -1559 3 -2156 11 -2195 25 -117 124 -235 236 -280 l58 -23 2169 -3 c1933 -2
2176 -1 2230 13 138 36 238 133 280 274 15 50 16 254 14 2230 l-3 2176 -24 60
c-33 83 -133 183 -216 216 l-60 24 -2180 2 c-2097 2 -2182 1 -2238 -16z"/>
</g>
</svg>
